<?xml version="1.0" encoding="UTF-8"?>
<svg enable-background="new 0 0 100 125" version="1.1" viewBox="0 0 100 125" xml:space="preserve" xmlns="http://www.w3.org/2000/svg">
<style type="text/css">
	.st0{fill:#883eca;}
</style>
<path class="st0" d="m5.1 15.5c-2 2.1-3.1 4.8-3.1 7.7v53.5c0 2.9 1.1 5.6 3.1 7.7 2.1 2.2 5 3.4 8 3.4h73.8c6.1 0 11.1-5 11.1-11.1v-53.5c0-6.1-5-11.1-11.1-11.1h-73.8c-3 0-5.9 1.3-8 3.4zm11.8 11.9c1.3-1.4 3.4-1.5 4.9-0.3l28.2 24.8 28.2-24.7c1.5-1.3 3.7-1.1 4.9 0.3s1.1 3.4-0.1 4.7l-16.7 17 16.8 18.8c1.3 1.5 1.1 3.7-0.3 4.9s-3.4 1.1-4.7-0.1l-17.7-17.5-4.8 4.9c-1.5 1.4-3.5 2.2-5.6 2.2s-4.1-0.8-5.6-2.2l-4.8-4.9-17.7 17.4c-1.4 1.3-3.6 1.3-4.9 0s-1.3-3.4-0.1-4.7l16.8-18.7-16.7-17.1c-1.3-1.3-1.3-3.4-0.1-4.8z"/>
</svg>
