<svg xmlns="http://www.w3.org/2000/svg" xmlns:xlink="http://www.w3.org/1999/xlink"><symbol viewBox="0 0 511.626 511.626" id="envelope" xmlns="http://www.w3.org/2000/svg"><path d="M49.106 178.729c6.472 4.567 25.981 18.131 58.528 40.685 32.548 22.554 57.482 39.92 74.803 52.099 1.903 1.335 5.946 4.237 12.131 8.71 6.186 4.476 11.326 8.093 15.416 10.852 4.093 2.758 9.041 5.852 14.849 9.277 5.806 3.422 11.279 5.996 16.418 7.7 5.14 1.718 9.898 2.569 14.275 2.569h.575c4.377 0 9.137-.852 14.277-2.569 5.137-1.704 10.615-4.281 16.416-7.7 5.804-3.429 10.752-6.52 14.845-9.277 4.093-2.759 9.229-6.376 15.417-10.852 6.184-4.477 10.232-7.375 12.135-8.71 17.508-12.179 62.051-43.11 133.615-92.79 13.894-9.703 25.502-21.411 34.827-35.116 9.332-13.699 13.993-28.07 13.993-43.105 0-12.564-4.523-23.319-13.565-32.264-9.041-8.947-19.749-13.418-32.117-13.418H45.679c-14.655 0-25.933 4.948-33.832 14.844C3.949 79.562 0 91.934 0 106.779c0 11.991 5.236 24.985 15.703 38.974 10.466 13.99 21.604 24.983 33.403 32.976z" data-original="#000000" class="aactive-path"/><path d="M483.072 209.275c-62.424 42.251-109.824 75.087-142.177 98.501-10.849 7.991-19.65 14.229-26.409 18.699-6.759 4.473-15.748 9.041-26.98 13.702-11.228 4.668-21.692 6.995-31.401 6.995h-.578c-9.707 0-20.177-2.327-31.405-6.995-11.228-4.661-20.223-9.229-26.98-13.702-6.755-4.47-15.559-10.708-26.407-18.699-25.697-18.842-72.995-51.68-141.896-98.501C17.987 202.047 8.375 193.762 0 184.437v226.685c0 12.57 4.471 23.319 13.418 32.265 8.945 8.949 19.701 13.422 32.264 13.422h420.266c12.56 0 23.315-4.473 32.261-13.422 8.949-8.949 13.418-19.694 13.418-32.265V184.437c-8.186 9.132-17.7 17.417-28.555 24.838z" data-original="#000000" class="aactive-path"/></symbol><symbol viewBox="0 0 470.513 470.513" id="facebook" xmlns="http://www.w3.org/2000/svg"><path d="M271.521 154.17v-40.541c0-6.086.28-10.8.849-14.13.567-3.335 1.857-6.615 3.859-9.853 1.999-3.236 5.236-5.47 9.706-6.708 4.476-1.24 10.424-1.858 17.85-1.858h40.539V0h-64.809c-37.5 0-64.433 8.897-80.803 26.691-16.368 17.798-24.551 44.014-24.551 78.658v48.82h-48.542v81.086h48.539v235.256h97.362V235.256h64.805l8.566-81.086h-73.37z" data-original="#000000" class="bactive-path"/></symbol><symbol viewBox="0 0 438.543 438.543" id="fullscreen" xmlns="http://www.w3.org/2000/svg"><path d="M407.42 159.029c3.62 3.616 7.898 5.428 12.847 5.428 2.282 0 4.668-.476 7.139-1.429 7.426-3.235 11.136-8.853 11.136-16.846V18.276c0-4.949-1.807-9.231-5.428-12.847-3.61-3.617-7.898-5.424-12.847-5.424H292.36c-7.991 0-13.607 3.805-16.848 11.419-3.23 7.423-1.902 13.99 4 19.698l41.111 41.112-101.352 101.355L117.917 72.231l41.112-41.112c5.901-5.708 7.232-12.275 3.999-19.698C159.789 3.807 154.175 0 146.182 0H18.276C13.324 0 9.041 1.809 5.425 5.426 1.808 9.042.001 13.324.001 18.273V146.18c0 7.996 3.809 13.61 11.419 16.846 2.285.948 4.57 1.429 6.855 1.429 4.948 0 9.229-1.812 12.847-5.427l41.112-41.109 101.354 101.354L72.234 320.622l-41.112-41.113c-5.711-5.903-12.275-7.231-19.702-4.001C3.806 278.749.001 284.364.001 292.362v127.906c0 4.948 1.807 9.229 5.424 12.847 3.619 3.614 7.902 5.421 12.851 5.421h127.906c7.996 0 13.61-3.806 16.846-11.416 3.234-7.427 1.903-13.99-3.999-19.705l-41.112-41.106L219.271 264.95l101.353 101.361-41.114 41.11c-5.899 5.708-7.228 12.279-3.997 19.698 3.237 7.617 8.856 11.423 16.851 11.423h127.907c4.948 0 9.232-1.813 12.847-5.428 3.613-3.613 5.42-7.898 5.42-12.847V292.362c0-7.994-3.709-13.613-11.136-16.851-7.802-3.23-14.462-1.903-19.985 4.004l-41.106 41.106-101.359-101.35L366.31 117.917l41.11 41.112z"/></symbol><symbol viewBox="0 0 438.536 438.536" id="pause" xmlns="http://www.w3.org/2000/svg"><path d="M164.453 0H18.276C13.324 0 9.041 1.807 5.425 5.424 1.808 9.04.001 13.322.001 18.271v401.991c0 4.948 1.807 9.233 5.424 12.847 3.619 3.617 7.902 5.428 12.851 5.428h146.181c4.949 0 9.231-1.811 12.847-5.428 3.617-3.613 5.424-7.898 5.424-12.847V18.271c0-4.952-1.807-9.231-5.428-12.847C173.685 1.807 169.402 0 164.453 0zM433.113 5.424C429.496 1.807 425.215 0 420.267 0H274.086c-4.949 0-9.237 1.807-12.847 5.424-3.621 3.615-5.432 7.898-5.432 12.847v401.991c0 4.948 1.811 9.233 5.432 12.847 3.609 3.617 7.897 5.428 12.847 5.428h146.181c4.948 0 9.229-1.811 12.847-5.428 3.614-3.613 5.421-7.898 5.421-12.847V18.271c-.001-4.952-1.805-9.231-5.422-12.847z"/></symbol><symbol viewBox="0 0 443.307 443.306" id="play" xmlns="http://www.w3.org/2000/svg"><path d="M415.934 212.799L36.788 2.097C32.411-.377 28.65-.661 25.51 1.242c-3.14 1.902-4.708 5.328-4.708 10.276V431.78c0 4.952 1.569 8.381 4.708 10.284 3.14 1.902 6.901 1.622 11.278-.855l379.146-210.703c4.381-2.478 6.571-5.434 6.571-8.856 0-3.426-2.191-6.376-6.571-8.851z"/></symbol><symbol viewBox="0 0 401.998 401.998" id="telephone" xmlns="http://www.w3.org/2000/svg"><path d="M401.129 311.475c-1.137-3.426-8.371-8.473-21.697-15.129-3.61-2.098-8.754-4.949-15.41-8.566a1437.412 1437.412 0 0 1-18.13-9.996 605.612 605.612 0 0 1-15.276-8.846c-.76-.571-3.139-2.234-7.136-5-4.001-2.758-7.375-4.805-10.14-6.14-2.759-1.327-5.473-1.995-8.138-1.995-3.806 0-8.56 2.714-14.268 8.135a139.01 139.01 0 0 0-15.7 17.706c-4.757 6.379-9.802 12.275-15.126 17.7-5.332 5.427-9.713 8.138-13.135 8.138-1.718 0-3.86-.479-6.427-1.424-2.566-.951-4.518-1.766-5.858-2.423-1.328-.671-3.607-1.999-6.845-4.004-3.244-1.999-5.048-3.094-5.428-3.285-26.075-14.469-48.438-31.029-67.093-49.676-18.649-18.658-35.211-41.019-49.676-67.097-.19-.381-1.287-2.19-3.284-5.424-2-3.237-3.333-5.518-3.999-6.854-.666-1.331-1.475-3.283-2.425-5.852s-1.427-4.709-1.427-6.424c0-3.424 2.713-7.804 8.138-13.134 5.424-5.327 11.326-10.373 17.7-15.128a138.95 138.95 0 0 0 17.701-15.699c5.424-5.711 8.136-10.467 8.136-14.273 0-2.663-.666-5.378-1.997-8.137-1.332-2.765-3.378-6.139-6.139-10.138-2.762-3.997-4.427-6.374-4.999-7.139a627.13 627.13 0 0 1-8.848-15.271 1441.4 1441.4 0 0 1-9.995-18.131c-3.615-6.658-6.468-11.799-8.564-15.415C98.986 9.233 93.943 1.997 90.516.859 89.183.288 87.183 0 84.521 0c-5.142 0-11.85.95-20.129 2.856-8.282 1.903-14.799 3.899-19.558 5.996-9.517 3.995-19.604 15.605-30.264 34.826C4.863 61.566.01 79.271.01 96.78c0 5.135.333 10.131.999 14.989.666 4.853 1.856 10.326 3.571 16.418 1.712 6.09 3.093 10.614 4.137 13.56 1.045 2.948 2.996 8.229 5.852 15.845 2.852 7.614 4.567 12.275 5.138 13.988 6.661 18.654 14.56 35.307 23.695 49.964 15.03 24.362 35.541 49.539 61.521 75.521 25.981 25.98 51.153 46.49 75.517 61.526 14.655 9.134 31.314 17.032 49.965 23.698 1.714.568 6.375 2.279 13.986 5.141 7.614 2.854 12.897 4.805 15.845 5.852 2.949 1.048 7.474 2.43 13.559 4.145 6.098 1.715 11.566 2.905 16.419 3.576 4.856.657 9.853.996 14.989.996 17.508 0 35.214-4.856 53.105-14.562 19.219-10.656 30.826-20.745 34.823-30.269 2.102-4.754 4.093-11.273 5.996-19.555 1.909-8.278 2.857-14.985 2.857-20.126.006-2.673-.281-4.668-.855-6.012z" data-original="#000000" class="factive-path"/></symbol><symbol viewBox="0 0 475.099 475.099" id="thumbs-up" xmlns="http://www.w3.org/2000/svg"><path d="M442.829 265.532c9.328-14.089 13.986-29.598 13.986-46.538 0-19.607-7.225-36.637-21.687-51.117-14.469-14.465-31.601-21.696-51.394-21.696h-50.251c9.134-18.842 13.709-37.117 13.709-54.816 0-22.271-3.34-39.971-9.996-53.105-6.663-13.138-16.372-22.795-29.126-28.984C295.313 3.09 280.947 0 264.959 0c-9.712 0-18.274 3.521-25.697 10.566-8.183 7.993-14.084 18.274-17.699 30.837-3.617 12.559-6.521 24.6-8.708 36.116-2.187 11.515-5.569 19.652-10.135 24.41-9.329 10.088-19.511 22.273-30.551 36.547-19.224 24.932-32.264 39.685-39.113 44.255H54.828c-10.088 0-18.702 3.574-25.84 10.706-7.135 7.139-10.705 15.752-10.705 25.841v182.723c0 10.089 3.566 18.699 10.705 25.838 7.142 7.139 15.752 10.711 25.84 10.711h82.221c4.188 0 17.319 3.806 39.399 11.42 23.413 8.186 44.017 14.418 61.812 18.702a230.392 230.392 0 0 0 54.106 6.427h36.829c26.836 0 48.438-7.666 64.809-22.99 16.365-15.324 24.458-36.213 24.27-62.67 11.42-14.657 17.129-31.597 17.129-50.819 0-4.185-.281-8.277-.855-12.278 7.23-12.748 10.854-26.453 10.854-41.11-.003-6.853-.858-13.423-2.573-19.7zM85.949 396.58c-3.616 3.614-7.898 5.428-12.847 5.428-4.95 0-9.233-1.813-12.85-5.428-3.615-3.613-5.424-7.897-5.424-12.85 0-4.948 1.805-9.229 5.424-12.847 3.621-3.617 7.9-5.425 12.85-5.425 4.949 0 9.231 1.808 12.847 5.425 3.617 3.617 5.426 7.898 5.426 12.847 0 4.953-1.809 9.237-5.426 12.85zm328.196-154.161c-4.093 8.754-9.186 13.227-15.276 13.415 2.854 3.237 5.235 7.762 7.139 13.562 1.902 5.807 2.847 11.087 2.847 15.848 0 13.127-5.037 24.455-15.126 33.969 3.43 6.088 5.141 12.658 5.141 19.697 0 7.043-1.663 14.038-4.996 20.984-3.327 6.94-7.851 11.938-13.559 14.982.951 5.709 1.423 11.04 1.423 15.988 0 31.785-18.274 47.678-54.823 47.678h-34.536c-24.94 0-57.483-6.943-97.648-20.841-.953-.38-3.709-1.383-8.28-2.998s-7.948-2.806-10.138-3.565c-2.19-.767-5.518-1.861-9.994-3.285-4.475-1.431-8.087-2.479-10.849-3.142-2.758-.664-5.901-1.283-9.419-1.855-3.52-.571-6.519-.855-8.993-.855h-9.136V219.285h9.136c3.045 0 6.423-.859 10.135-2.568 3.711-1.714 7.52-4.283 11.421-7.71a294.593 294.593 0 0 0 10.992-10.138c3.427-3.33 7.233-7.517 11.422-12.559 4.187-5.046 7.47-9.089 9.851-12.135a1179.86 1179.86 0 0 0 8.992-11.707c3.615-4.757 5.806-7.613 6.567-8.566 10.467-12.941 17.795-21.601 21.982-25.981 7.804-8.182 13.466-18.603 16.987-31.261 3.525-12.66 6.427-24.604 8.703-35.832 2.282-11.229 5.903-19.321 10.858-24.27 18.268 0 30.453 4.471 36.542 13.418 6.088 8.945 9.134 22.746 9.134 41.399 0 11.229-4.572 26.503-13.71 45.821-9.134 19.32-13.698 34.5-13.698 45.539h100.495c9.527 0 17.993 3.662 25.413 10.994 7.426 7.327 11.143 15.843 11.143 25.553-.003 6.661-2.05 14.371-6.142 23.137z"/></symbol><symbol viewBox="0 0 442.533 442.533" id="tick" xmlns="http://www.w3.org/2000/svg"><path d="M434.539 98.499l-38.828-38.828c-5.324-5.328-11.799-7.993-19.41-7.993-7.618 0-14.093 2.665-19.417 7.993L169.59 247.248l-83.939-84.225c-5.33-5.33-11.801-7.992-19.412-7.992-7.616 0-14.087 2.662-19.417 7.992L7.994 201.852C2.664 207.181 0 213.654 0 221.269c0 7.609 2.664 14.088 7.994 19.416l103.351 103.349 38.831 38.828c5.327 5.332 11.8 7.994 19.414 7.994 7.611 0 14.084-2.669 19.414-7.994l38.83-38.828L434.539 137.33c5.325-5.33 7.994-11.802 7.994-19.417.004-7.611-2.669-14.084-7.994-19.414z" data-original="#000000" class="hactive-path"/></symbol><symbol preserveAspectRatio="xMidYMid" viewBox="0 0 256 209" id="twitter" xmlns="http://www.w3.org/2000/svg"><path d="M256 25.45c-9.42 4.177-19.542 7-30.166 8.27 10.845-6.5 19.172-16.793 23.093-29.057a105.183 105.183 0 0 1-33.351 12.745C205.995 7.201 192.346.822 177.239.822c-29.006 0-52.523 23.516-52.523 52.52 0 4.117.465 8.125 1.36 11.97-43.65-2.191-82.35-23.1-108.255-54.876-4.52 7.757-7.11 16.78-7.11 26.404 0 18.222 9.273 34.297 23.365 43.716a52.312 52.312 0 0 1-23.79-6.57c-.003.22-.003.44-.003.661 0 25.447 18.104 46.675 42.13 51.5a52.592 52.592 0 0 1-23.718.9c6.683 20.866 26.08 36.05 49.062 36.475-17.975 14.086-40.622 22.483-65.228 22.483-4.24 0-8.42-.249-12.529-.734 23.243 14.902 50.85 23.597 80.51 23.597 96.607 0 149.434-80.031 149.434-149.435 0-2.278-.05-4.543-.152-6.795A106.748 106.748 0 0 0 256 25.45"/></symbol><symbol viewBox="0 0 347.182 347.182" id="volume-off" xmlns="http://www.w3.org/2000/svg"><path d="M277.808 5.426C274.187 1.809 269.902 0 264.954 0c-4.945 0-9.233 1.809-12.847 5.426L157.034 100.5H82.233c-4.952 0-9.235 1.809-12.851 5.424-3.617 3.621-5.426 7.901-5.426 12.85v109.634c0 4.948 1.809 9.232 5.426 12.847 3.619 3.617 7.902 5.428 12.851 5.428h74.798l95.07 95.077c3.62 3.61 7.904 5.421 12.847 5.421 4.955 0 9.236-1.811 12.854-5.421 3.613-3.617 5.424-7.901 5.424-12.847V18.276c-.001-4.948-1.805-9.234-5.418-12.85z" data-original="#000000" class="jactive-path"/></symbol><symbol viewBox="0 0 475.082 475.081" id="volume-on" xmlns="http://www.w3.org/2000/svg"><path d="M200.999 63.952c-4.946 0-9.229 1.812-12.847 5.426l-95.074 95.075H18.276c-4.952 0-9.234 1.812-12.85 5.424C1.809 173.493 0 177.778 0 182.726v109.63c0 4.949 1.809 9.233 5.426 12.848 3.619 3.617 7.902 5.427 12.85 5.427h74.798l95.074 95.078c3.617 3.61 7.9 5.424 12.847 5.424 4.952 0 9.234-1.813 12.85-5.424 3.617-3.614 5.426-7.901 5.426-12.847V82.228c0-4.948-1.809-9.234-5.422-12.85-3.619-3.614-7.898-5.426-12.85-5.426zM316.769 277.936c8.093-12.467 12.135-25.93 12.135-40.395s-4.042-27.992-12.135-40.556c-8.094-12.562-18.791-21.41-32.121-26.551-1.902-.949-4.284-1.427-7.139-1.427-4.944 0-9.232 1.762-12.847 5.282-3.61 3.521-5.427 7.852-5.427 12.99 0 3.997 1.143 7.376 3.432 10.137 2.283 2.762 5.041 5.142 8.282 7.139a147.75 147.75 0 0 1 9.708 6.567c3.238 2.38 5.996 5.758 8.278 10.135 2.276 4.38 3.426 9.804 3.426 16.277 0 6.471-1.143 11.896-3.426 16.276-2.282 4.381-5.04 7.755-8.278 10.14a147.75 147.75 0 0 1-9.708 6.567c-3.241 1.992-5.999 4.377-8.282 7.132-2.282 2.765-3.432 6.143-3.432 10.14 0 5.144 1.816 9.47 5.427 12.99 3.614 3.521 7.902 5.288 12.847 5.288 2.854 0 5.236-.479 7.139-1.424 13.33-5.339 24.031-14.24 32.121-26.707z" data-original="#000000" class="kactive-path"/><path d="M377.728 318.194c16.18-24.646 24.273-51.531 24.273-80.654 0-29.124-8.094-56.005-24.273-80.666-16.177-24.645-37.6-42.583-64.241-53.815-2.471-.95-4.948-1.427-7.416-1.427-4.948 0-9.236 1.809-12.854 5.426-3.613 3.616-5.424 7.898-5.424 12.847 0 7.424 3.713 13.039 11.139 16.849 10.657 5.518 17.888 9.705 21.693 12.559 14.089 10.28 25.077 23.173 32.976 38.686 7.898 15.514 11.848 32.026 11.848 49.537 0 17.512-3.949 34.023-11.848 49.536-7.898 15.516-18.894 28.407-32.976 38.684-3.806 2.857-11.036 7.043-21.693 12.563-7.426 3.809-11.139 9.424-11.139 16.847 0 4.948 1.811 9.236 5.424 12.847 3.617 3.621 7.991 5.432 13.131 5.432 2.286 0 4.668-.483 7.139-1.428 26.641-11.234 48.064-29.173 64.241-53.823z" data-original="#000000" class="kactive-path"/><path d="M438.824 116.92c-24.171-36.638-56.343-63.622-96.505-80.943-2.471-.95-4.948-1.425-7.416-1.425-4.948 0-9.236 1.811-12.847 5.424-3.621 3.615-5.432 7.902-5.432 12.85 0 6.851 3.714 12.469 11.14 16.846 1.335.756 3.467 1.755 6.42 2.996 2.95 1.232 5.089 2.231 6.427 2.993 8.754 4.755 16.56 9.611 23.418 14.56 23.407 17.318 41.682 38.922 54.816 64.809 13.134 25.885 19.697 53.388 19.697 82.512 0 29.129-6.563 56.626-19.697 82.512-13.131 25.889-31.409 47.496-54.816 64.809-6.858 4.948-14.664 9.801-23.418 14.562-1.338.756-3.477 1.752-6.427 2.99-2.953 1.232-5.085 2.231-6.42 2.998-7.426 4.374-11.14 9.993-11.14 16.844 0 4.949 1.811 9.233 5.432 12.848 3.61 3.617 7.898 5.427 12.847 5.427 2.468 0 4.945-.476 7.416-1.431 40.162-17.315 72.334-44.3 96.505-80.94 24.174-36.638 36.258-76.849 36.258-120.625s-12.081-83.982-36.258-120.616z" data-original="#000000" class="kactive-path"/></symbol><symbol viewBox="0 0 511.626 511.627" id="youtube" xmlns="http://www.w3.org/2000/svg"><path d="M511.339 212.987c-.186-10.277-1-23.271-2.423-38.97-1.431-15.708-3.478-29.746-6.14-42.115-3.046-13.893-9.661-25.6-19.842-35.117-10.181-9.519-22.031-15.037-35.549-16.562-42.258-4.755-106.115-7.135-191.573-7.135-85.459 0-149.317 2.38-191.572 7.135-13.516 1.524-25.319 7.043-35.404 16.562-10.089 9.514-16.656 21.221-19.702 35.117-2.852 12.373-4.996 26.41-6.423 42.115-1.425 15.699-2.235 28.688-2.424 38.97C.094 223.265 0 237.539 0 255.813c0 18.272.094 32.55.288 42.826.189 10.284.999 23.271 2.424 38.969 1.427 15.707 3.474 29.745 6.139 42.116 3.046 13.897 9.659 25.602 19.842 35.115 10.185 9.517 22.036 15.036 35.548 16.56 42.255 4.76 106.109 7.139 191.572 7.139 85.466 0 149.315-2.379 191.573-7.139 13.518-1.523 25.316-7.043 35.405-16.56 10.089-9.514 16.652-21.225 19.698-35.115 2.854-12.371 4.996-26.409 6.427-42.116 1.423-15.697 2.231-28.691 2.423-38.969.191-10.276.287-24.554.287-42.826 0-18.274-.095-32.548-.287-42.826zm-154.456 58.244L210.706 362.59c-2.666 1.903-5.905 2.854-9.71 2.854-2.853 0-5.803-.764-8.848-2.286-6.28-3.422-9.419-8.754-9.419-15.985V164.454c0-7.229 3.14-12.561 9.419-15.986 6.473-3.431 12.657-3.239 18.558.571l146.178 91.36c5.708 3.23 8.562 8.372 8.562 15.415 0 7.04-2.855 12.184-8.563 15.417z"/></symbol></svg>